<svg width="206" height="58" fill="none" xmlns="http://www.w3.org/2000/svg"><path stroke="#408F95" d="M4.5 4.5h201v53H4.5z"/><path fill="#fff" stroke="#408F95" d="M.5.5h201v53H.5z"/><path d="M49.408 20.934a28.956 28.956 0 01-.686 2.282 60.53 60.53 0 01-.938 2.604c-.345.887-.71 1.764-1.092 2.632-.383.868-.76 1.661-1.134 2.38-.112.075-.27.135-.476.182a2.132 2.132 0 01-.588.084 56.043 56.043 0 01-1.064-2.324c-.345-.83-.681-1.67-1.008-2.52a94.241 94.241 0 01-.91-2.576 41.751 41.751 0 01-.728-2.478c.299-.196.672-.294 1.12-.294a58.555 58.555 0 001.428 4.648 60.066 60.066 0 001.918 4.718c.308-.663.607-1.372.896-2.128.29-.756.565-1.53.826-2.324.27-.803.518-1.61.742-2.422.233-.812.434-1.596.602-2.352.205-.093.457-.14.756-.14.15 0 .261.01.336.028zm2.962.56c-.084.15-.215.308-.392.476-.177.159-.336.27-.476.336a2.051 2.051 0 01-.476-.336 2.513 2.513 0 01-.406-.476 2.29 2.29 0 01.406-.49c.177-.168.336-.29.476-.364.14.075.299.196.476.364.187.168.317.331.392.49zm-1.456 2.436c.159-.084.331-.145.518-.182.196-.037.392-.056.588-.056v7.196c-.13.075-.303.126-.518.154a3.292 3.292 0 01-.588.056V23.93zm4.32 3.458c.028.504.117.947.266 1.33.159.373.36.686.602.938.243.252.523.443.84.574a2.96 2.96 0 001.036.182c.457 0 .85-.06 1.176-.182a2.54 2.54 0 00.91-.574c.13.028.22.117.266.266a2.404 2.404 0 01-.322.378 2.46 2.46 0 01-.574.434 3.46 3.46 0 01-.854.35 3.84 3.84 0 01-1.148.154c-.467 0-.9-.084-1.302-.252a3.036 3.036 0 01-1.05-.728 3.51 3.51 0 01-.714-1.176 4.65 4.65 0 01-.252-1.582c0-.541.093-1.05.28-1.526.187-.485.439-.905.756-1.26a3.697 3.697 0 011.134-.84 3.143 3.143 0 011.4-.322c.532 0 .97.089 1.316.266.345.177.616.406.812.686.205.28.345.588.42.924.084.336.126.663.126.98-.075.112-.177.21-.308.294a1.49 1.49 0 01-.406.196l-4.41.49zm2.086-3.206c-.29 0-.56.051-.812.154a1.727 1.727 0 00-.658.476 2.58 2.58 0 00-.462.826c-.112.336-.173.742-.182 1.218l3.948-.406a.715.715 0 00.014-.14v-.126c0-.29-.037-.555-.112-.798a1.667 1.667 0 00-.35-.63 1.556 1.556 0 00-.574-.42 1.939 1.939 0 00-.812-.154zm7.877 6.678a1.26 1.26 0 01-.462.168c-.196.047-.382.07-.56.07a35.016 35.016 0 01-.658-1.638 85.286 85.286 0 01-.63-1.848 101.64 101.64 0 01-.56-1.876 29.435 29.435 0 01-.42-1.764c.308-.187.672-.28 1.092-.28.075.448.178.938.308 1.47a45.383 45.383 0 00.994 3.36c.196.57.392 1.125.588 1.666.196-.476.388-.975.574-1.498.187-.532.364-1.064.532-1.596A33.794 33.794 0 0066.821 24c.159-.093.332-.159.518-.196.187-.037.36-.056.518-.056.084.448.196.943.336 1.484.15.541.313 1.101.49 1.68.178.57.364 1.143.56 1.722.206.57.411 1.12.616 1.652.196-.495.378-1.017.546-1.568.178-.55.336-1.106.476-1.666.15-.56.276-1.11.378-1.652.112-.55.206-1.069.28-1.554a1.76 1.76 0 01.742-.154c.159 0 .266.01.322.028-.13.55-.284 1.125-.462 1.722a31.043 31.043 0 01-.574 1.82 33.36 33.36 0 01-.672 1.834 38.585 38.585 0 01-.728 1.764 1.28 1.28 0 01-.476.168c-.205.047-.387.07-.546.07-.177-.41-.359-.859-.546-1.344a88.986 88.986 0 01-.532-1.498 97.19 97.19 0 01-.49-1.54 29.164 29.164 0 01-.42-1.526c-.102.41-.228.859-.378 1.344-.149.485-.312.98-.49 1.484a52.27 52.27 0 01-1.092 2.842zm17.891-4.256c0-.765-.154-1.33-.462-1.694-.298-.373-.732-.56-1.302-.56-.448 0-.849.135-1.204.406a2.91 2.91 0 00-.826.966v5.166c-.13.075-.303.126-.518.154a3.292 3.292 0 01-.588.056V23.93a2.228 2.228 0 011.036-.238v1.302a3.46 3.46 0 01.392-.49c.168-.177.36-.336.574-.476.224-.14.472-.252.742-.336a2.7 2.7 0 01.882-.14c.58 0 1.05.154 1.414.462.374.299.626.663.756 1.092.112-.15.252-.313.42-.49.178-.187.378-.36.602-.518.224-.159.472-.29.742-.392.28-.103.58-.154.896-.154.71 0 1.284.224 1.722.672.448.439.672 1.087.672 1.946v4.718c-.13.075-.303.126-.518.154a3.292 3.292 0 01-.588.056v-4.494c0-1.503-.583-2.254-1.75-2.254-.382 0-.756.13-1.12.392a3.03 3.03 0 00-.868.952v5.194c-.13.075-.303.126-.518.154a3.292 3.292 0 01-.588.056v-4.494zm9.17.49c0 .588.07 1.101.21 1.54.15.439.341.807.575 1.106.242.29.518.509.826.658.317.15.648.224.994.224.746 0 1.316-.247 1.708-.742.392-.504.588-1.26.588-2.268 0-.485-.056-.938-.168-1.358a3.268 3.268 0 00-.504-1.092 2.376 2.376 0 00-.798-.728 2.2 2.2 0 00-1.092-.266c-.299 0-.588.056-.868.168-.28.112-.528.29-.742.532a2.758 2.758 0 00-.532.91c-.13.364-.196.803-.196 1.316zm-1.175.434c0-.57.103-1.097.308-1.582.205-.495.48-.915.826-1.26.355-.355.765-.63 1.232-.826.476-.205.98-.308 1.512-.308.579 0 1.078.098 1.498.294.43.196.78.457 1.05.784.28.327.485.71.616 1.148.14.439.21.9.21 1.386 0 .57-.089 1.101-.266 1.596a3.881 3.881 0 01-.77 1.302 3.56 3.56 0 01-1.204.868c-.476.215-1.017.322-1.624.322A3.37 3.37 0 0193.183 31a3.297 3.297 0 01-1.092-.728 3.598 3.598 0 01-.742-1.162 4.429 4.429 0 01-.266-1.582zm9.295-3.598a2.26 2.26 0 011.05-.238v2.016c.093-.28.219-.546.378-.798a3.11 3.11 0 01.56-.686c.224-.196.471-.35.742-.462a2.17 2.17 0 01.896-.182c.252 0 .471.042.658.126.187.075.341.173.462.294.121.112.21.243.266.392.065.15.103.294.112.434-.075.13-.205.243-.392.336a1.47 1.47 0 01-.532.168 1.479 1.479 0 00-.308-.672c-.159-.196-.425-.294-.798-.294-.271 0-.523.08-.756.238a2.238 2.238 0 00-.602.672 3.87 3.87 0 00-.434 1.008 6.634 6.634 0 00-.196 1.288v3.318a1.418 1.418 0 01-.518.154 3.287 3.287 0 01-.588.056V23.93zm6.96 3.458c.028.504.116.947.266 1.33.158.373.359.686.602.938.242.252.522.443.84.574a2.95 2.95 0 001.036.182c.457 0 .849-.06 1.176-.182.336-.121.639-.313.91-.574.13.028.219.117.266.266a2.454 2.454 0 01-.322.378c-.14.15-.332.294-.574.434a3.47 3.47 0 01-.854.35c-.327.103-.71.154-1.148.154-.467 0-.901-.084-1.302-.252a3.025 3.025 0 01-1.05-.728 3.5 3.5 0 01-.714-1.176 4.65 4.65 0 01-.252-1.582c0-.541.093-1.05.28-1.526.186-.485.438-.905.756-1.26a3.683 3.683 0 011.134-.84 3.14 3.14 0 011.4-.322c.532 0 .97.089 1.316.266.345.177.616.406.812.686.205.28.345.588.42.924.084.336.126.663.126.98-.075.112-.178.21-.308.294-.122.084-.257.15-.406.196l-4.41.49zm2.086-3.206c-.29 0-.56.051-.812.154a1.723 1.723 0 00-.658.476 2.57 2.57 0 00-.462.826c-.112.336-.173.742-.182 1.218l3.948-.406a.739.739 0 00.014-.14v-.126c0-.29-.038-.555-.112-.798a1.679 1.679 0 00-.924-1.05 1.94 1.94 0 00-.812-.154z" fill="#408F95"/><path d="M122 28h40l-7-6" stroke="#408F95" stroke-linecap="round" stroke-linejoin="round"/></svg>